<?xml version="1.0" standalone="no"?>
<!DOCTYPE svg PUBLIC "-//W3C//DTD SVG 20010904//EN"
 "http://www.w3.org/TR/2001/REC-SVG-20010904/DTD/svg10.dtd">
<svg version="1.0" xmlns="http://www.w3.org/2000/svg"
 width="4rem" viewBox="0 0 255.000000 236.000000"
 preserveAspectRatio="xMidYMid meet">

<g transform="translate(0.000000,236.000000) scale(0.100000,-0.100000)"
fill="#eee" stroke="none">
<path d="M580 1998 c-76 -39 -101 -123 -60 -203 19 -37 19 -40 2 -49 -42 -23
-92 -88 -107 -141 -29 -100 -40 -96 233 -93 l237 3 3 23 c9 59 -59 175 -121
209 -18 9 -18 11 2 44 40 65 22 155 -37 198 -47 33 -99 36 -152 9z m124 -63
c57 -53 20 -155 -57 -155 -91 0 -121 122 -42 168 32 19 70 14 99 -13z m23
-236 c44 -21 75 -55 93 -103 l10 -26 -180 0 c-203 0 -204 0 -156 71 50 73 151
98 233 58z"/>
<path d="M1240 2002 c-76 -38 -104 -138 -59 -212 15 -24 18 -35 9 -38 -26 -9
-82 -67 -102 -105 -11 -22 -21 -61 -22 -86 l-1 -46 236 -3 c195 -2 238 0 242
12 14 37 -42 173 -81 196 -53 31 -55 35 -33 76 42 77 15 166 -62 203 -53 26
-81 26 -127 3z m119 -68 c25 -20 31 -34 31 -64 0 -68 -82 -113 -136 -75 -34
23 -49 69 -34 105 26 63 87 78 139 34z m8 -225 c48 -18 113 -92 113 -129 0 -6
-61 -10 -180 -10 -99 0 -180 2 -180 5 0 14 40 82 56 96 53 46 130 61 191 38z"/>
<path d="M1891 1998 c-77 -40 -102 -124 -60 -202 18 -34 19 -40 5 -48 -60 -34
-106 -102 -119 -178 -11 -61 -14 -61 244 -58 l234 3 -1 46 c-1 25 -11 64 -22
86 -20 38 -76 96 -102 105 -9 3 -6 14 9 38 13 22 21 52 21 80 0 114 -109 180
-209 128z m111 -49 c11 -6 26 -26 34 -46 14 -31 13 -38 -3 -71 -41 -85 -164
-57 -163 37 1 70 71 113 132 80z m33 -248 c48 -22 69 -44 90 -94 l15 -37 -181
0 -181 0 7 27 c10 43 42 79 87 102 53 26 110 27 163 2z"/>
<path d="M647 1457 c-8 -21 8 -39 29 -35 27 5 25 42 -2 46 -12 2 -24 -3 -27
-11z"/>
<path d="M1917 1457 c-8 -21 8 -39 29 -35 27 5 25 42 -2 46 -12 2 -24 -3 -27
-11z"/>
<path d="M1286 1443 c-4 -9 0 -23 9 -32 13 -14 17 -14 31 1 9 9 14 24 11 32
-8 21 -43 20 -51 -1z"/>
<path d="M737 1383 c-13 -12 -7 -44 8 -49 24 -10 47 14 34 37 -10 19 -30 25
-42 12z"/>
<path d="M1834 1375 c-8 -21 2 -45 19 -45 8 0 20 7 27 15 10 12 10 18 0 30 -7
8 -19 15 -27 15 -7 0 -16 -7 -19 -15z"/>
<path d="M1290 1345 c-11 -13 -11 -18 2 -31 20 -20 50 -7 46 20 -4 26 -30 32
-48 11z"/>
<path d="M816 1283 c-5 -11 -1 -22 9 -30 23 -16 47 -5 43 21 -4 27 -43 34 -52
9z"/>
<path d="M1746 1283 c-4 -9 0 -23 9 -32 13 -14 17 -14 31 1 9 9 14 24 11 32
-8 21 -43 20 -51 -1z"/>
<path d="M1245 1239 c-172 -21 -325 -130 -402 -286 -33 -67 -35 -75 -21 -90
22 -21 32 -13 74 68 45 85 134 171 219 210 270 126 591 -31 660 -322 20 -85
20 -84 -21 -58 -31 19 -37 20 -50 7 -21 -21 -10 -38 56 -86 l60 -44 60 48 c60
47 75 79 44 91 -8 3 -28 -4 -44 -16 -38 -28 -40 -27 -40 12 0 91 -59 217 -144
305 -120 126 -280 183 -451 161z"/>
<path d="M910 1205 c-16 -19 -6 -45 19 -45 23 0 35 28 20 46 -15 18 -24 18
-39 -1z"/>
<path d="M1671 1210 c-19 -11 -9 -45 14 -45 13 0 21 8 23 21 3 23 -17 37 -37
24z"/>
<path d="M1255 1105 c-53 -19 -111 -82 -125 -135 -15 -55 0 -122 40 -171 l28
-35 -45 -24 c-77 -41 -142 -139 -158 -238 -12 -74 -21 -72 319 -72 165 0 307
4 315 9 19 12 9 95 -18 155 -24 56 -91 129 -136 151 -40 18 -42 25 -15 50 31
28 53 99 47 151 -13 118 -142 200 -252 159z m123 -64 c125 -64 77 -251 -64
-251 -140 0 -180 188 -53 252 44 23 71 23 117 -1z m-40 -336 c-13 -29 -28 -28
-39 3 -7 20 -5 22 21 22 28 0 29 -1 18 -25z m-89 -27 c9 -25 8 -49 -6 -110
l-16 -78 -89 0 -88 0 6 28 c16 66 59 127 118 166 50 34 62 33 75 -6z m239 -14
c41 -34 92 -122 92 -156 0 -17 -8 -19 -82 -16 l-81 3 -19 65 c-22 79 -22 99
-3 127 19 27 42 21 93 -23z m-145 -116 l15 -58 -34 0 c-23 0 -34 5 -34 14 0
32 24 116 31 109 4 -5 14 -34 22 -65z"/>
<path d="M751 739 c-62 -52 -74 -80 -38 -87 10 -2 27 4 37 13 25 22 40 11 40
-28 1 -44 42 -158 79 -216 93 -144 272 -241 446 -241 195 0 389 121 473 294
35 72 36 96 2 96 -15 0 -28 -17 -52 -66 -117 -239 -414 -335 -649 -208 -69 38
-148 115 -187 184 -31 54 -70 195 -58 207 3 4 17 -4 30 -16 28 -27 60 -24 64
4 2 14 -8 29 -30 45 -18 13 -47 34 -64 47 l-32 24 -61 -52z"/>
</g>
</svg>
