<?xml version="1.0" standalone="no"?>
<!DOCTYPE svg PUBLIC "-//W3C//DTD SVG 20010904//EN"
 "http://www.w3.org/TR/2001/REC-SVG-20010904/DTD/svg10.dtd">
<svg version="1.0" xmlns="http://www.w3.org/2000/svg"
 width="6rem" viewBox="0 0 500.000000 205.000000"
 preserveAspectRatio="xMidYMid meet">

<g transform="translate(0.000000,205.000000) scale(0.100000,-0.100000)"
fill="#eee" stroke="none">
<path d="M515 1935 c-88 -31 -121 -108 -88 -199 l20 -53 -44 -42 c-73 -68
-118 -192 -75 -205 23 -7 75 -8 295 -7 l187 1 0 33 c0 52 -56 154 -101 186
-25 17 -36 31 -32 41 31 78 36 98 29 135 -9 45 -72 115 -104 115 -11 0 -26 2
-34 5 -7 2 -31 -2 -53 -10z m106 -74 c41 -42 40 -92 -2 -132 -41 -38 -81 -38
-120 0 -40 41 -40 91 0 132 40 39 82 39 122 0z m44 -251 c33 -20 85 -93 85
-118 0 -15 -316 -17 -355 -2 -25 9 -25 11 -11 39 23 43 69 86 108 99 48 16
132 7 173 -18z"/>
<path d="M1176 1928 c-70 -41 -94 -123 -61 -206 l15 -38 -54 -56 c-55 -57 -76
-102 -76 -165 l0 -33 245 0 245 0 0 30 c0 58 -39 137 -87 179 l-46 39 17 41
c33 84 16 155 -49 200 -50 34 -102 37 -149 9z m126 -67 c26 -23 32 -36 31 -66
-3 -94 -126 -126 -168 -44 -22 42 -18 74 14 108 38 41 79 41 123 2z m33 -245
c39 -23 95 -89 95 -113 0 -19 -215 -30 -327 -17 l-52 7 19 36 c51 101 173 141
265 87z"/>
<path d="M1888 1940 c-48 -15 -86 -49 -103 -95 -16 -42 -16 -47 -1 -92 10 -27
19 -55 22 -63 3 -9 -7 -23 -23 -34 -43 -28 -82 -85 -99 -143 -25 -85 -31 -83
249 -83 l240 0 -6 49 c-8 66 -37 121 -89 165 l-42 36 17 48 c22 61 22 99 -2
142 -29 56 -104 88 -163 70z m96 -75 c42 -46 42 -88 -1 -137 -38 -43 -119 -25
-143 31 -37 92 79 176 144 106z m22 -244 c45 -21 88 -70 99 -113 l7 -28 -186
0 c-170 0 -186 1 -186 18 0 20 36 81 59 100 55 44 139 54 207 23z"/>
<path d="M2510 1692 c-73 -36 -104 -120 -98 -257 7 -149 57 -215 165 -215 73
0 83 6 83 50 l0 37 -39 -10 c-89 -24 -125 31 -119 179 2 75 7 98 24 121 23 31
69 41 104 23 17 -9 22 -7 30 15 15 40 13 45 -25 61 -46 19 -82 18 -125 -4z"/>
<path d="M2824 1696 c-64 -28 -104 -118 -104 -230 1 -164 58 -246 172 -246
111 0 159 64 166 222 3 71 0 109 -12 145 -34 101 -130 149 -222 109z m130
-110 c26 -52 26 -197 2 -245 -23 -44 -60 -60 -94 -41 -34 20 -50 70 -51 162
-1 120 26 171 88 166 31 -3 39 -9 55 -42z"/>
<path d="M3613 1695 c-40 -17 -63 -61 -63 -120 0 -61 17 -90 84 -148 47 -40
56 -54 56 -81 0 -17 -5 -37 -12 -44 -16 -16 -67 -15 -98 3 -37 21 -40 19 -40
-25 0 -35 4 -42 28 -51 15 -6 56 -9 91 -7 54 4 67 8 87 31 29 34 40 104 24
152 -8 26 -30 51 -71 83 -63 48 -78 78 -60 118 8 18 18 24 43 24 18 0 40 -5
48 -10 11 -7 18 -3 27 13 20 35 15 47 -22 63 -43 17 -80 17 -122 -1z"/>
<path d="M3140 1460 l0 -240 41 0 42 0 -5 175 c-2 96 -3 175 -3 175 1 0 35
-79 76 -175 l74 -175 53 0 52 0 0 240 0 240 -41 0 -41 0 3 -170 c2 -93 1 -166
-2 -162 -3 4 -37 80 -75 170 l-69 162 -52 0 -53 0 0 -240z"/>
<path d="M3810 1665 c0 -35 0 -35 45 -35 l45 0 0 -205 0 -205 45 0 45 0 0 205
0 205 45 0 c45 0 45 0 45 35 l0 35 -135 0 -135 0 0 -35z"/>
<path d="M4130 1460 l0 -240 45 0 45 0 0 95 c0 85 2 95 18 95 14 0 28 -24 57
-95 l38 -95 44 0 c52 0 52 -4 -3 116 -19 41 -34 79 -34 84 0 5 11 26 25 46 19
29 25 49 25 93 0 108 -42 141 -177 141 l-83 0 0 -240z m153 157 c10 -6 20 -29
23 -49 5 -30 2 -41 -19 -62 -15 -14 -35 -26 -47 -26 -18 0 -20 6 -20 75 0 72
1 75 23 75 13 0 31 -6 40 -13z"/>
<path d="M4472 1513 c3 -160 6 -194 22 -226 24 -48 61 -67 130 -67 47 0 60 4
89 30 48 41 57 88 57 284 l0 166 -45 0 -45 0 0 -185 c0 -172 -1 -186 -20 -205
-11 -11 -29 -20 -40 -20 -11 0 -29 9 -40 20 -19 19 -20 33 -20 205 l0 185 -46
0 -46 0 4 -187z"/>
<path d="M564 1369 c-10 -17 23 -46 37 -32 7 7 9 19 6 27 -7 18 -33 21 -43 5z"/>
<path d="M1884 1369 c-3 -6 0 -17 7 -25 18 -17 44 -2 36 20 -7 18 -33 21 -43
5z"/>
<path d="M1234 1355 c-7 -18 2 -45 15 -45 14 0 33 38 26 50 -9 15 -35 12 -41
-5z"/>
<path d="M662 1291 c-19 -11 -11 -45 11 -49 9 -2 20 4 23 13 9 21 -16 47 -34
36z"/>
<path d="M1801 1282 c-14 -26 3 -50 26 -36 25 16 27 31 4 43 -16 9 -22 8 -30
-7z"/>
<path d="M1234 1245 c-4 -9 -2 -21 4 -27 15 -15 44 -1 40 19 -4 23 -36 29 -44
8z"/>
<path d="M744 1185 c-4 -9 -2 -21 4 -27 15 -15 44 -1 40 19 -4 23 -36 29 -44
8z"/>
<path d="M1710 1181 c0 -28 21 -37 36 -16 16 22 10 35 -17 35 -12 0 -19 -7
-19 -19z"/>
<path d="M1083 1116 c-92 -30 -155 -71 -226 -144 -86 -91 -145 -227 -98 -227
8 0 33 31 55 69 116 197 308 297 507 266 204 -31 358 -172 415 -379 10 -34 14
-64 10 -68 -3 -4 -20 1 -37 11 -28 17 -32 17 -47 3 -19 -20 -9 -34 66 -89 60
-45 50 -47 135 31 60 56 42 97 -23 51 -16 -11 -31 -17 -33 -13 -2 5 -8 34 -12
66 -22 187 -216 390 -415 436 -81 19 -217 13 -297 -13z"/>
<path d="M840 1105 c-16 -19 -5 -47 17 -43 11 2 18 12 18 27 0 29 -17 37 -35
16z"/>
<path d="M1620 1090 c0 -13 7 -20 20 -20 13 0 20 7 20 20 0 13 -7 20 -20 20
-13 0 -20 -7 -20 -20z"/>
<path d="M1185 996 c-35 -15 -102 -86 -115 -122 -22 -57 -9 -119 38 -188 20
-29 23 -41 14 -44 -27 -9 -98 -69 -129 -110 -40 -52 -81 -177 -66 -201 6 -9
31 -19 59 -23 61 -8 423 -8 524 1 l75 6 3 33 c5 48 -24 129 -64 185 -31 42
-96 99 -127 110 -9 3 -9 9 0 23 57 86 71 170 40 229 -48 92 -165 139 -252 101z
m151 -68 c36 -25 64 -75 64 -114 0 -40 -37 -102 -73 -120 -41 -22 -108 -22
-142 0 -71 47 -85 148 -29 208 58 61 116 70 180 26z m-46 -324 c0 -3 -5 -14
-11 -25 -8 -16 -13 -18 -25 -8 -22 18 -17 39 11 39 14 0 25 -3 25 -6z m-101
-48 c8 -33 -8 -160 -24 -186 -8 -12 -185 -13 -185 -1 0 22 33 98 56 128 32 42
101 93 125 93 12 0 21 -11 28 -34z m224 8 c49 -33 119 -139 115 -174 -3 -25
-4 -25 -82 -22 -51 1 -83 7 -88 15 -4 6 -14 43 -23 80 -16 68 -11 100 19 119
16 11 18 10 59 -18z m-129 -128 c9 -30 16 -59 16 -65 0 -17 -60 -13 -66 4 -7
18 15 115 26 115 5 0 16 -24 24 -54z"/>
<path d="M2460 982 c-97 -51 -107 -220 -18 -300 120 -108 128 -118 128 -156 0
-52 -31 -80 -81 -73 -21 3 -52 12 -70 21 -18 9 -36 16 -41 16 -4 0 -8 -23 -8
-51 0 -48 1 -51 38 -66 54 -24 159 -22 202 2 46 27 73 84 74 154 0 79 -24 121
-108 189 -55 45 -73 66 -80 94 -13 53 11 88 62 88 20 -1 48 -7 62 -14 23 -13
25 -12 42 26 10 22 18 44 18 48 0 4 -18 15 -40 24 -54 22 -137 21 -180 -2z"/>
<path d="M2772 738 c3 -238 4 -255 25 -294 25 -47 53 -68 112 -84 90 -24 177
11 221 90 24 44 25 50 28 293 l4 247 -61 0 -61 0 0 -238 c0 -202 -2 -241 -16
-260 -37 -54 -105 -47 -129 13 -12 26 -15 85 -15 260 l0 225 -56 0 -55 0 3
-252z"/>
<path d="M3270 675 l0 -315 55 0 55 0 0 114 0 113 59 7 c35 4 73 16 93 29 106
71 105 296 -2 349 -27 14 -60 18 -147 18 l-113 0 0 -315z m205 194 c15 -15 20
-33 20 -75 0 -49 -4 -59 -29 -80 -18 -16 -38 -24 -55 -22 -26 3 -26 4 -29 92
-2 49 0 96 3 104 7 20 63 8 90 -19z"/>
<path d="M3700 675 l0 -315 55 0 55 0 0 115 0 115 28 0 c16 0 51 7 79 15 60
18 97 56 114 118 16 59 6 158 -20 200 -33 54 -72 67 -200 67 l-111 0 0 -315z
m196 204 c20 -16 33 -75 27 -115 -7 -41 -44 -74 -84 -74 l-29 0 0 98 c0 54 3
102 7 106 10 9 62 -1 79 -15z"/>
<path d="M4130 675 l0 -315 135 0 135 0 0 50 0 50 -80 0 -80 0 0 265 0 265
-55 0 -55 0 0 -315z"/>
<path d="M4454 928 c14 -35 47 -121 75 -193 l51 -130 0 -122 0 -123 55 0 55 0
0 128 0 127 73 185 74 185 -55 3 c-30 2 -58 -1 -62 -5 -4 -4 -24 -59 -45 -121
-20 -62 -39 -111 -41 -109 -3 2 -22 55 -43 118 l-38 114 -61 3 -61 3 23 -63z"/>
<path d="M668 617 c-32 -29 -58 -58 -58 -64 0 -20 32 -24 57 -7 31 20 37 13
52 -61 7 -33 30 -96 51 -141 100 -208 356 -337 578 -290 167 35 323 148 391
284 57 114 22 151 -40 42 -70 -125 -153 -199 -276 -247 -58 -22 -83 -27 -168
-26 -88 0 -109 3 -181 32 -96 37 -189 116 -241 202 -31 52 -82 213 -71 225 3
3 23 -4 44 -15 41 -22 54 -20 54 9 0 17 -107 110 -127 110 -4 0 -34 -24 -65
-53z"/>
</g>
</svg>
